<?xml version="1.0" encoding="utf-8"?>
<!-- Generator: Adobe Illustrator 27.5.0, SVG Export Plug-In . SVG Version: 6.00 Build 0)  -->
<svg version="1.1" xmlns="http://www.w3.org/2000/svg" xmlns:xlink="http://www.w3.org/1999/xlink" x="0px" y="0px"
	 viewBox="0 0 500 500" style="enable-background:new 0 0 500 500;" xml:space="preserve">
<g id="BACKGROUND">
	<rect id="XMLID_7212_" style="fill:#FFFFFF;" width="500" height="500"/>
	<circle id="XMLID_7704_" style="fill:#813B85;" cx="249.327" cy="206.009" r="163.448"/>
	<g id="XMLID_3_">
		<path id="XMLID_7800_" style="fill:#B683BA;" d="M411.813,118.222c6.521-0.348,6.956-8.347,6.956-8.347s0.435,7.999,6.956,8.347
			c-6.521,0.348-6.956,8.347-6.956,8.347S418.334,118.57,411.813,118.222z"/>
		<path id="XMLID_7802_" style="fill:#B683BA;" d="M433.06,144.036c12.59-0.672,13.429-16.115,13.429-16.115
			s0.839,15.443,13.429,16.115c-12.59,0.671-13.429,16.115-13.429,16.115S445.65,144.707,433.06,144.036z"/>
		<path id="XMLID_7804_" style="fill:#B683BA;" d="M446.489,94.814c6.521-0.348,6.956-8.347,6.956-8.347s0.435,7.999,6.956,8.347
			c-6.521,0.348-6.956,8.347-6.956,8.347S453.011,95.162,446.489,94.814z"/>
	</g>
	<g id="XMLID_4_">
		<path id="XMLID_7813_" style="fill:#B683BA;" d="M86.122,115.438c-6.521-0.348-6.956-8.347-6.956-8.347s-0.435,8-6.956,8.347
			c6.521,0.348,6.956,8.347,6.956,8.347S79.6,115.786,86.122,115.438z"/>
		<path id="XMLID_7812_" style="fill:#B683BA;" d="M64.874,141.251c-12.59-0.671-13.429-16.115-13.429-16.115
			s-0.839,15.444-13.429,16.115c12.59,0.671,13.429,16.115,13.429,16.115S52.285,141.923,64.874,141.251z"/>
		<path id="XMLID_7805_" style="fill:#B683BA;" d="M51.445,92.031c-6.521-0.348-6.956-8.347-6.956-8.347s-0.435,8-6.956,8.347
			c6.521,0.348,6.956,8.347,6.956,8.347S44.924,92.378,51.445,92.031z"/>
	</g>
	<g id="XMLID_1_">
		<path id="XMLID_9036_" style="fill:#FEFEFE;" d="M320.068,161.862c11.107-0.592,11.848-14.217,11.848-14.217
			s0.741,13.625,11.848,14.217c-11.107,0.592-11.848,14.217-11.848,14.217S331.175,162.455,320.068,161.862z"/>
		<path id="XMLID_9064_" style="fill:#FEFEFE;" d="M347.641,188.401c4.722-0.252,5.037-6.045,5.037-6.045s0.315,5.793,5.037,6.045
			c-4.722,0.252-5.037,6.045-5.037,6.045S352.363,188.652,347.641,188.401z"/>
		<path id="XMLID_9065_" style="fill:#FEFEFE;" d="M357.715,162.844c4.722-0.252,5.037-6.045,5.037-6.045s0.315,5.793,5.037,6.045
			c-4.722,0.252-5.037,6.045-5.037,6.045S362.438,163.096,357.715,162.844z"/>
		<path id="XMLID_9066_" style="fill:#FEFEFE;" d="M126.811,200.807c11.107-0.592,11.848-14.217,11.848-14.217
			s0.74,13.625,11.848,14.217c-11.107,0.592-11.848,14.217-11.848,14.217S137.918,201.399,126.811,200.807z"/>
		<path id="XMLID_9068_" style="fill:#FEFEFE;" d="M150.506,178.079c4.722-0.252,5.037-6.045,5.037-6.045s0.315,5.793,5.037,6.045
			c-4.722,0.252-5.037,6.045-5.037,6.045S155.228,178.331,150.506,178.079z"/>
		<path id="XMLID_9069_" style="fill:#FEFEFE;" d="M121.774,172.035c4.722-0.252,5.037-6.045,5.037-6.045s0.315,5.793,5.037,6.045
			c-4.722,0.252-5.037,6.045-5.037,6.045S126.496,172.287,121.774,172.035z"/>
		<g id="XMLID_27_">
			<g id="XMLID_8972_">
				<g id="XMLID_146_">
					<path id="XMLID_150_" style="fill:#FFFFFF;" d="M341.214,105.766c1.609,0,1.611-2.5,0-2.5
						C339.605,103.266,339.603,105.766,341.214,105.766L341.214,105.766z"/>
				</g>
			</g>
			<g id="XMLID_8973_">
				<g id="XMLID_123_">
					<path id="XMLID_144_" style="fill:#FFFFFF;" d="M307.917,127.82c1.609,0,1.611-2.5,0-2.5
						C306.308,125.32,306.305,127.82,307.917,127.82L307.917,127.82z"/>
				</g>
			</g>
			<g id="XMLID_9012_">
				<g id="XMLID_99_">
					<path id="XMLID_117_" style="fill:#FFFFFF;" d="M299.216,86.267c1.609,0,1.611-2.5,0-2.5
						C297.607,83.767,297.605,86.267,299.216,86.267L299.216,86.267z"/>
				</g>
			</g>
			<g id="XMLID_9093_">
				<g id="XMLID_90_">
					<path id="XMLID_96_" style="fill:#FFFFFF;" d="M197.221,90.767c1.609,0,1.611-2.5,0-2.5
						C195.612,88.267,195.61,90.767,197.221,90.767L197.221,90.767z"/>
				</g>
			</g>
			<g id="XMLID_9094_">
				<g id="XMLID_82_">
					<path id="XMLID_88_" style="fill:#FFFFFF;" d="M179.222,140.264c1.609,0,1.611-2.5,0-2.5
						C177.613,137.764,177.611,140.264,179.222,140.264L179.222,140.264z"/>
				</g>
			</g>
			<g id="XMLID_9098_">
				<g id="XMLID_75_">
					<path id="XMLID_80_" style="fill:#FFFFFF;" d="M152.223,119.266c1.609,0,1.611-2.5,0-2.5
						C150.615,116.766,150.612,119.266,152.223,119.266L152.223,119.266z"/>
				</g>
			</g>
			<g id="XMLID_9107_">
				<g id="XMLID_69_">
					<path id="XMLID_73_" style="fill:#FFFFFF;" d="M386.212,207.761c1.609,0,1.611-2.5,0-2.5
						C384.603,205.261,384.6,207.761,386.212,207.761L386.212,207.761z"/>
				</g>
			</g>
			<g id="XMLID_9142_">
				<g id="XMLID_63_">
					<path id="XMLID_67_" style="fill:#FFFFFF;" d="M344.214,285.757c1.609,0,1.611-2.5,0-2.5
						C342.605,283.257,342.602,285.757,344.214,285.757L344.214,285.757z"/>
				</g>
			</g>
			<g id="XMLID_9150_">
				<g id="XMLID_57_">
					<path id="XMLID_61_" style="fill:#FFFFFF;" d="M372.712,282.758c1.609,0,1.611-2.5,0-2.5
						C371.104,280.258,371.101,282.758,372.712,282.758L372.712,282.758z"/>
				</g>
			</g>
			<g id="XMLID_9159_">
				<g id="XMLID_51_">
					<path id="XMLID_55_" style="fill:#FFFFFF;" d="M152.223,275.258c1.609,0,1.611-2.5,0-2.5
						C150.615,272.758,150.612,275.258,152.223,275.258L152.223,275.258z"/>
				</g>
			</g>
			<g id="XMLID_9167_">
				<g id="XMLID_45_">
					<path id="XMLID_49_" style="fill:#FFFFFF;" d="M134.224,300.757c1.609,0,1.611-2.5,0-2.5
						C132.616,298.257,132.613,300.757,134.224,300.757L134.224,300.757z"/>
				</g>
			</g>
			<g id="XMLID_9175_">
				<g id="XMLID_39_">
					<path id="XMLID_43_" style="fill:#FFFFFF;" d="M108.725,225.76c1.609,0,1.611-2.5,0-2.5
						C107.117,223.26,107.114,225.76,108.725,225.76L108.725,225.76z"/>
				</g>
			</g>
		</g>
	</g>
</g>
<g id="OBJECTS">
	<g id="XMLID_10_">
		<path id="XMLID_2_" style="fill:#333E48;" d="M283.24,129.278c-0.766,4.547,0.712,9.418,3.875,12.773
			c3.273,3.471,7.954,5.164,12.017,7.665c4.063,2.501,7.876,6.62,7.392,11.367c-0.258,2.529-1.728,4.949-1.317,7.458
			c0.648,3.947,5.256,5.611,8.267,8.245c2.236,1.956,3.726,4.742,4.119,7.686c0.701,5.249-2.064,10.482-5.955,14.075
			c-0.973,0.898-2.009,1.712-3.093,2.462c-5.393,3.735-11.878,5.568-18.438,5.568h-84.336c-7.029,0-13.968-2.097-19.572-6.34
			c-0.7-0.53-1.377-1.091-2.025-1.69c-3.891-3.593-6.657-8.826-5.955-14.075c0.393-2.944,1.884-5.73,4.119-7.686
			c3.011-2.634,7.619-4.297,8.267-8.245c0.412-2.509-1.059-4.929-1.317-7.458c-0.484-4.747,3.329-8.866,7.392-11.367
			c4.063-2.501,8.744-4.194,12.017-7.665c3.163-3.355,4.641-8.226,3.875-12.773H283.24z"/>
		<path id="XMLID_124_" style="opacity:0.27;fill:#333E48;" d="M207.354,194.817c-2.976-1.649-5.109-5.088-5.459-8.802
			c-0.35-3.714,1.093-7.581,3.695-9.898c1.584-1.41,3.777-2.703,3.785-4.976c0.005-1.536-1.051-2.771-1.692-4.126
			c-2.329-4.927,1.11-10.992,5.292-13.986c4.183-2.995,9.247-4.46,12.877-8.26c2.976-3.114,4.709-7.681,4.65-12.256h33.019
			c-0.059,4.574,1.674,9.141,4.65,12.256c3.631,3.8,8.695,5.265,12.877,8.26c4.183,2.995,7.622,9.059,5.293,13.986
			c-0.641,1.356-1.697,2.59-1.692,4.126c0.008,2.273,2.201,3.566,3.785,4.976c2.602,2.316,4.045,6.184,3.695,9.898
			c-0.35,3.714-2.483,7.153-5.459,8.802H207.354z"/>
		<path id="XMLID_7636_" style="fill:#F8C6B5;" d="M202.233,198.445c-7.622,8.433-16.666,17.769-25.212,25.264l5.239,11.282
			c12.478-6.567,24.069-14.816,34.363-24.453L202.233,198.445z"/>
		<path id="XMLID_4664_" style="fill:#EFEEEE;" d="M183.76,234.607c-8.351,3.038-18.087,7.592-26.74,9.612
			c-2.854,0.666-5.771,1.122-8.52,2.139c-4.756,1.76-11.664,6.244-14.088,5.473c-1.182-0.292,2.26-2.167,3.39-3.25
			c0.234-0.224,0.485-0.486,0.483-0.81c-0.003-0.585-0.751-0.814-1.333-0.872c-2.465-0.247-4.931-0.493-7.396-0.74
			c-0.456-0.046-0.943-0.104-1.293-0.399c-0.465-0.392-0.521-1.178-0.117-1.633c0.404-0.455,0.883-0.361,1.635-0.077
			c-1.289-0.275-1.289-0.275-1.951-0.397c-0.662-0.122-1.327-0.912-0.865-1.402c0.176-0.187,0.449-0.237,0.703-0.277
			c0.891-0.141,1.782-0.281,2.673-0.422c-1.263,0.361-4.454-0.499-3.207-1.609c1.333-0.263,2.702-0.348,4.058-0.252
			c-1.171-0.162-2.3-0.605-3.277-1.271c-0.556-0.379-0.27-1.249,0.402-1.27c5.523-0.176,11.036,3.409,16.576,2.471
			c1.993-0.337,3.838-1.245,5.649-2.145c8.487-4.219,18.07-9.396,26.48-13.767L183.76,234.607z"/>
		<path id="XMLID_8787_" style="fill:#F8C6B5;" d="M294.503,198.159c7.622,8.433,16.666,17.769,25.212,25.264l-5.239,11.282
			c-12.478-6.567-24.07-14.816-34.363-24.453L294.503,198.159z"/>
		<g id="XMLID_9061_">
			<path id="XMLID_9062_" style="fill:#F8C6B5;" d="M240.099,161.075c-1.875,13.244-4.258,11.122-19.986,15.677
				c-14.34,4.153-21.159,12.259-23.672,16.053l12.117,13.625c0,0,3.075,5.503,5.098,12.94l65.995-0.186l3.419-8.164l0.288-0.487
				c5.835-8.856,12.732-13.836,12.732-13.836c-2.827-5.919-6.263-10.499-12.842-14.602c-3.812-2.377-8.011-4.269-12.431-5.088
				c-16.952-3.14-15.322-14.992-15.645-15.831L240.099,161.075z"/>
		</g>
		<g id="XMLID_9044_">
			<path id="XMLID_9059_" style="fill:#F8C6B5;" d="M280.346,123.603c0.039,3.081-0.186,6.439-0.734,10.097
				c0.993-0.504,2.225-0.015,2.919,0.95c0.694,0.965,0.909,2.3,0.8,3.55c-0.149,1.714-0.899,3.378-2.112,4.375
				c-1.213,0.997-3.128,1.57-4.473,0.835c-2.168,14.008-15.959,19.477-28.236,20.071c-12.277,0.593-26.113-6.32-29.281-20.071
				c-1.892,0.97-4.575,0.262-5.9-1.578c-1.325-1.84-1.446-4.709-0.283-6.69c0.931-1.586,2.742-2.548,4.313-1.942
				c0,0-1.622-3.94-1.816-10.393c0,0,0.56-22.903,32.493-21.639C281.395,102.486,280.346,123.603,280.346,123.603z"/>
			<g id="XMLID_9056_">
				<path id="XMLID_8929_" style="fill:#C47B67;" d="M281.284,136.44c0,0-0.097-0.104-0.285-0.233
					c-0.187-0.132-0.487-0.285-0.862-0.334c-0.381-0.051-0.814,0.037-1.124,0.373c-0.319,0.333-0.527,0.84-0.62,1.362
					c-0.105,0.525-0.115,1.08-0.101,1.604c0.004,0.261,0.031,0.481,0.077,0.717c0.044,0.228,0.104,0.44,0.173,0.629
					c0.263,0.773,0.677,1.135,0.677,1.135c0.07,0.062,0.077,0.168,0.016,0.239c-0.058,0.067-0.158,0.077-0.228,0.025l-0.016-0.012
					c0,0-0.124-0.092-0.299-0.293c-0.174-0.199-0.405-0.509-0.576-0.928c-0.087-0.208-0.165-0.439-0.226-0.689
					c-0.058-0.241-0.116-0.533-0.119-0.806c-0.022-0.54-0.024-1.131,0.086-1.726c0.121-0.59,0.361-1.181,0.792-1.617
					c0.212-0.217,0.498-0.375,0.777-0.436c0.279-0.064,0.542-0.053,0.777-0.012c0.474,0.087,0.803,0.323,1.006,0.49
					c0.207,0.176,0.294,0.292,0.294,0.292l0.015,0.02c0.051,0.068,0.037,0.165-0.031,0.216
					C281.426,136.506,281.337,136.497,281.284,136.44z"/>
			</g>
			<g id="XMLID_9052_">
				<path id="XMLID_8926_" style="fill:#C47B67;" d="M278.292,137.588c0,0,0.055,0.009,0.152,0.025
					c0.104,0.023,0.245,0.056,0.407,0.131c0.324,0.142,0.704,0.453,0.95,0.856c0.249,0.367,0.411,0.845,0.433,1.178
					c0.035,0.334,0.027,0.549,0.027,0.549l0,0.007c-0.003,0.083-0.073,0.148-0.156,0.145c-0.068-0.003-0.124-0.05-0.14-0.113
					c0,0-0.053-0.205-0.134-0.514c-0.075-0.305-0.208-0.652-0.433-1.005c-0.197-0.339-0.482-0.613-0.729-0.77
					c-0.121-0.081-0.234-0.14-0.31-0.172c-0.085-0.033-0.133-0.051-0.133-0.051l-0.006-0.002c-0.071-0.027-0.106-0.107-0.078-0.178
					C278.165,137.612,278.229,137.577,278.292,137.588z"/>
			</g>
			<g id="XMLID_9049_">
				<path id="XMLID_8910_" style="fill:#C47B67;" d="M214.568,136.222c0,0,0.087-0.116,0.294-0.292
					c0.203-0.168,0.532-0.404,1.006-0.49c0.235-0.042,0.499-0.052,0.777,0.012c0.279,0.06,0.565,0.219,0.777,0.436
					c0.431,0.436,0.671,1.027,0.792,1.617c0.11,0.595,0.108,1.186,0.086,1.726c-0.003,0.273-0.061,0.565-0.119,0.805
					c-0.061,0.25-0.139,0.481-0.226,0.689c-0.17,0.419-0.402,0.728-0.576,0.928c-0.175,0.201-0.299,0.293-0.299,0.293l-0.015,0.011
					c-0.075,0.056-0.181,0.04-0.237-0.034c-0.053-0.071-0.041-0.171,0.024-0.228c0,0,0.414-0.362,0.677-1.135
					c0.069-0.189,0.129-0.401,0.173-0.629c0.046-0.236,0.074-0.456,0.077-0.717c0.014-0.524,0.004-1.08-0.102-1.604
					c-0.093-0.522-0.3-1.029-0.62-1.362c-0.31-0.336-0.743-0.424-1.124-0.373c-0.375,0.049-0.674,0.202-0.862,0.334
					c-0.187,0.129-0.285,0.233-0.285,0.233c-0.058,0.062-0.156,0.066-0.218,0.008c-0.058-0.054-0.065-0.143-0.019-0.205
					L214.568,136.222z"/>
			</g>
			<g id="XMLID_9045_">
				<path id="XMLID_8903_" style="fill:#C47B67;" d="M217.849,137.854c0,0-0.049,0.019-0.133,0.051
					c-0.076,0.032-0.188,0.091-0.31,0.172c-0.247,0.158-0.532,0.432-0.729,0.77c-0.225,0.354-0.359,0.7-0.433,1.005
					c-0.08,0.308-0.134,0.514-0.134,0.514c-0.021,0.081-0.103,0.129-0.184,0.108c-0.066-0.017-0.11-0.075-0.113-0.14l0-0.008
					c0,0-0.008-0.215,0.027-0.549c0.022-0.333,0.184-0.811,0.433-1.178c0.245-0.403,0.627-0.714,0.95-0.856
					c0.162-0.075,0.303-0.108,0.407-0.131c0.097-0.016,0.152-0.025,0.152-0.025c0.075-0.012,0.146,0.038,0.158,0.113
					c0.011,0.066-0.026,0.128-0.086,0.151L217.849,137.854z"/>
			</g>
		</g>
		<path id="XMLID_9038_" style="fill:#333E48;" d="M267.871,99.788c10.092,4.722,15.786,16.653,15.474,27.749
			c-0.081,2.89-0.921,6.244-3.597,7.367c-1.225,0.514-2.605,0.256-3.932,0.332c-35.586,2.022-44.784-23.961-43.382-28.638
			c1.343-4.479,5.412-7.784,9.885-9.204C242.32,97.394,257.587,94.976,267.871,99.788z"/>
		<path id="XMLID_9037_" style="fill:#333E48;" d="M236.17,110.639c-2.878,9.756-5.767,15.618-13.603,22.112
			c-1.93,1.599-6.446,3.155-8.397,1.581c-1.215-0.98-1.454-2.712-1.55-4.27c-0.355-5.731,0.023-11.614,2.141-16.951
			c2.118-5.337,6.151-10.093,11.512-12.151c2.812-1.079,7.484-2.914,9.602-0.772C237.563,101.896,237.605,108.712,236.17,110.639"/>
		<path id="XMLID_9035_" style="fill:#FF637D;" d="M244.859,149.164c0.312-0.357,0.649-0.692,1.008-1.001
			c0.196-0.169,0.402-0.332,0.644-0.425c0.241-0.092,0.525-0.106,0.75,0.021c0.161,0.09,0.283,0.245,0.456,0.31
			c0.379,0.142,0.752-0.203,1.144-0.302c0.41-0.104,0.851,0.077,1.163,0.362c0.313,0.285,0.522,0.664,0.725,1.035
			c-0.149,0.673-0.469,1.297-1.042,1.681c-0.485,0.325-1.083,0.438-1.666,0.457c-0.71,0.023-1.44-0.087-2.056-0.441
			c-0.616-0.353-1.102-0.976-1.175-1.682"/>
		<g id="XMLID_9031_">
			<path id="XMLID_8900_" style="fill:#604965;" d="M252.367,148.961c0,0-0.475,0.261-1.265,0.542
				c-0.78,0.284-1.872,0.52-2.982,0.582c-1.11,0.05-2.221-0.075-3.026-0.282c-0.405-0.09-0.732-0.207-0.96-0.287
				c-0.227-0.083-0.356-0.13-0.356-0.13c-0.081-0.029-0.122-0.119-0.093-0.2c0.028-0.078,0.115-0.118,0.194-0.095
				c0,0,0.515,0.156,1.303,0.298c0.786,0.148,1.851,0.251,2.915,0.197c1.064-0.044,2.116-0.245,2.885-0.467
				c0.765-0.212,1.273-0.422,1.273-0.422c0.073-0.03,0.156,0.004,0.186,0.077c0.028,0.068,0,0.144-0.062,0.179L252.367,148.961z"/>
		</g>
		<g id="XMLID_9028_">
			<path id="XMLID_8907_" style="fill:#C47B67;" d="M247.925,140.737c0,0-0.074,0.036-0.205,0.098
				c-0.11,0.054-0.276,0.157-0.45,0.285c-0.344,0.249-0.724,0.742-0.644,1.165c0.014,0.101,0.022,0.121,0.034,0.171
				c0.018,0.056,0.038,0.111,0.065,0.166c0.055,0.109,0.125,0.216,0.21,0.311c0.17,0.188,0.361,0.359,0.549,0.475
				c0.372,0.241,0.671,0.347,0.671,0.347c0.135,0.048,0.205,0.197,0.157,0.332c-0.038,0.107-0.14,0.173-0.248,0.172l-0.024,0
				c0,0-0.371-0.005-0.887-0.234c-0.251-0.121-0.55-0.282-0.804-0.556c-0.128-0.133-0.246-0.293-0.345-0.473
				c-0.05-0.09-0.091-0.188-0.127-0.29c-0.034-0.11-0.069-0.252-0.07-0.316c-0.048-0.465,0.122-0.891,0.347-1.196
				c0.228-0.31,0.517-0.501,0.763-0.638c0.251-0.135,0.474-0.193,0.638-0.235c0.153-0.032,0.233-0.038,0.233-0.038l0.014-0.001
				c0.132-0.01,0.247,0.088,0.257,0.22C248.068,140.604,248.012,140.695,247.925,140.737z"/>
		</g>
		<g id="XMLID_9020_">
			<g id="XMLID_9024_">
				<path id="XMLID_8905_" style="fill:#604965;" d="M271.182,138.134c0,0,0.009,0.063,0.026,0.18
					c0.013,0.143,0.021,0.331,0.003,0.566c-0.042,0.466-0.166,1.134-0.552,1.843c-0.378,0.7-1.002,1.469-1.903,1.966
					c-0.893,0.503-1.988,0.732-3.041,0.7c-0.527-0.023-1.048-0.088-1.546-0.196c-0.263-0.059-0.463-0.102-0.764-0.194
					c-0.193-0.059-0.519-0.207-0.738-0.366c-0.895-0.638-1.321-1.528-1.582-2.273c-0.252-0.761-0.286-1.438-0.254-1.906
					c0.038-0.471,0.122-0.735,0.122-0.735l0.006-0.018c0.051-0.161,0.223-0.25,0.384-0.199c0.151,0.048,0.238,0.204,0.206,0.356
					c0,0-0.048,0.218-0.044,0.614c0.002,0.396,0.106,0.97,0.353,1.609c0.245,0.631,0.686,1.349,1.333,1.777
					c0.162,0.106,0.265,0.164,0.527,0.249c0.156,0.044,0.429,0.107,0.642,0.149c0.455,0.092,0.921,0.141,1.383,0.154
					c0.923,0.043,1.835-0.133,2.572-0.527c0.738-0.391,1.305-0.97,1.659-1.553c0.356-0.583,0.546-1.137,0.613-1.526
					c0.036-0.195,0.042-0.348,0.046-0.437c-0.005-0.113-0.007-0.173-0.007-0.173l0-0.007c-0.006-0.155,0.114-0.285,0.268-0.291
					C271.038,137.888,271.162,137.994,271.182,138.134z"/>
			</g>
			<g id="XMLID_9021_">
				<path id="XMLID_9153_" style="fill:#604965;" d="M236.132,138.297c0,0,0.009,0.063,0.026,0.181
					c0.012,0.143,0.021,0.331,0.003,0.566c-0.042,0.466-0.166,1.134-0.551,1.842c-0.378,0.7-1.001,1.469-1.903,1.966
					c-0.893,0.503-1.988,0.732-3.041,0.7c-0.527-0.023-1.048-0.088-1.546-0.196c-0.263-0.059-0.463-0.102-0.764-0.194
					c-0.193-0.059-0.519-0.207-0.738-0.366c-0.895-0.638-1.321-1.529-1.582-2.273c-0.252-0.761-0.286-1.438-0.254-1.906
					c0.038-0.471,0.122-0.735,0.122-0.735l0.006-0.018c0.051-0.161,0.223-0.25,0.383-0.199c0.151,0.048,0.239,0.204,0.206,0.356
					c0,0-0.047,0.218-0.044,0.614c0.003,0.396,0.106,0.97,0.353,1.609c0.245,0.631,0.686,1.349,1.333,1.777
					c0.162,0.106,0.265,0.164,0.527,0.249c0.156,0.044,0.429,0.107,0.642,0.149c0.455,0.092,0.921,0.141,1.383,0.154
					c0.923,0.043,1.835-0.132,2.572-0.527c0.738-0.391,1.305-0.97,1.659-1.554c0.356-0.583,0.546-1.137,0.614-1.526
					c0.036-0.195,0.042-0.348,0.046-0.437c-0.005-0.113-0.007-0.173-0.007-0.173l0-0.007c-0.006-0.154,0.114-0.285,0.268-0.291
					C235.988,138.051,236.111,138.158,236.132,138.297z"/>
			</g>
		</g>
		<path id="XMLID_8957_" style="opacity:0.54;fill:#F8C6B5;" d="M255.281,162.649c0,0-4.145,1.72-15.419,0
			C239.861,162.649,246.66,172.089,255.281,162.649z"/>
		<path id="XMLID_4641_" style="fill:#FFFFFF;" d="M280.401,141.258c0,0.909-0.737,1.646-1.646,1.646
			c-0.909,0-1.646-0.737-1.646-1.646c0-0.909,0.737-1.646,1.646-1.646C279.664,139.612,280.401,140.349,280.401,141.258z"/>
		<path id="XMLID_4640_" style="fill:#FFFFFF;" d="M218.011,141.258c0,0.909-0.737,1.646-1.646,1.646
			c-0.909,0-1.646-0.737-1.646-1.646c0-0.909,0.737-1.646,1.646-1.646C217.273,139.612,218.011,140.349,218.011,141.258z"/>
		<path id="XMLID_7818_" style="fill:#DABDDC;" d="M120.375,447.879c5.738-23.052,24.493-40.983,31.257-63.755
			c4.328-14.572,3.447-30.091,3.832-45.288c0.385-15.197,5.148-27.501,9.647-42.021c7.981-25.758,55.56-58.919,55.56-58.919
			c-1.453-9.105-10.404-24.105-13.339-32.846c0,0,15.715-8.528,40.239,0c0,0,23.476-7.945,38.456,0.538l-0.907,2.424
			c-3.25,9.352-10.287,22.288-11.081,30.997c24.653,10.928,47.005,33.099,54.986,58.857c4.499,14.521,9.262,26.824,9.647,42.021
			c0.385,15.197-0.497,30.715,3.832,45.288c6.764,22.772,25.519,40.703,31.257,63.754c-24.871,3.86-49.519,14.863-74.622,13.049
			c-17.246-1.246-33.939-8.762-51.178-7.419c-18.02,1.403-35.295,12.422-53.035,8.96c-7.748-1.512-14.868-5.736-22.729-6.461
			c-8.806-0.812-17.449,2.859-26.292,2.947c-9.783,0.097-19.51-4.483-25.668-12.087"/>
		<path id="XMLID_7861_" style="opacity:0.42;fill:#DABDDC;" d="M304.249,462.179c23.343,0.152,46.33-9.65,69.511-13.248
			c-5.738-23.052-24.493-40.983-31.257-63.754c-2.361-7.948-3.172-16.177-3.484-24.482c-2.588-1.01-5.842-2.788-8.431-3.797
			c0.56,9.454-0.97,19,0.32,28.383c1.391,10.117,5.98,19.486,8.68,29.334c2.7,9.849,3.238,21.208-2.76,29.473
			c-2.935,4.045-7.167,6.954-11.516,9.416c-6.738,3.813-13.971,6.75-21.461,8.714"/>
		<path id="XMLID_7858_" style="opacity:0.42;fill:#DABDDC;" d="M172.196,457.06c-8.806-0.812-17.449,2.859-26.292,2.947
			c-9.783,0.097-19.51-4.483-25.668-12.087l0.139-0.041c5.738-23.052,24.493-40.983,31.257-63.755
			c2.947-9.923,3.479-20.284,3.64-30.684c7.3,4.414,11.234,12.612,11.918,21.115c0.684,8.503-1.534,16.973-4.329,25.033
			c-3.031,8.741-6.764,17.24-11.152,25.385c-2.554,4.741-5.424,9.785-4.834,15.138c0.596,5.411,4.75,9.906,9.591,12.395
			c4.841,2.489,10.339,3.316,15.725,4.108"/>
		<path id="XMLID_8779_" style="fill:#FFFFFF;" d="M274.039,245.311c24.653,10.928,47.005,33.099,54.986,58.857
			c4.499,14.521,9.262,26.824,9.647,42.021c0.185,7.295,0.476,14.664,0.793,21.967c-22.982-4.421-45.029-14.704-61.836-30.991
			c-5.218-5.057-10.005-10.619-13.673-16.892c-2.915-4.985-5.093-10.36-7.259-15.714c-7.708-19.045-15.536-39.901-9.784-59.625
			L274.039,245.311z"/>
		<path id="XMLID_7831_" style="fill:#FFFFFF;" d="M220.495,244.204c-24.653,10.928-47.005,33.099-54.986,58.857
			c-4.499,14.521-9.262,26.824-9.647,42.021c-0.185,7.295-0.869,14.664-1.187,21.967c22.982-4.422,45.423-14.704,62.229-30.991
			c5.218-5.057,10.005-10.619,13.673-16.892c2.915-4.985,5.093-10.361,7.259-15.714c7.708-19.045,15.536-39.901,9.784-59.625
			L220.495,244.204z"/>
		<path id="XMLID_7814_" style="fill:#B683BA;" d="M247.623,205.267c-4.129-3.456-8.276-6.925-12.863-9.746
			c-9.095-5.593-19.729-8.47-30.394-8.986c-3.209-0.155-6.528-0.083-9.478,1.191c-2.95,1.273-5.467,3.995-5.642,7.203
			c-0.127,2.335,0.998,4.619,2.651,6.273c1.652,1.654,3.789,2.745,5.979,3.564c3.518,1.315,7.241,1.991,10.965,2.479
			C221.736,208.937,234.892,207.927,247.623,205.267"/>
		<path id="XMLID_7817_" style="fill:#B683BA;" d="M247.152,205.267c4.129-3.456,8.277-6.925,12.863-9.746
			c9.095-5.593,19.729-8.47,30.394-8.986c3.209-0.155,6.528-0.083,9.478,1.191c2.95,1.273,5.467,3.995,5.642,7.203
			c0.127,2.335-0.998,4.619-2.651,6.273c-1.652,1.654-3.789,2.745-5.979,3.564c-3.518,1.315-7.241,1.991-10.965,2.479
			C273.039,208.937,259.883,207.927,247.152,205.267"/>
		<g id="XMLID_7820_">
			<path id="XMLID_7823_" style="fill:#E9B907;" d="M252.598,206.273c0,3.63-2.438,6.573-5.446,6.573
				c-3.008,0-5.446-2.943-5.446-6.573c0-3.63,2.438-6.573,5.446-6.573C250.16,199.7,252.598,202.643,252.598,206.273z"/>
			<path id="XMLID_7821_" style="fill:#FCE79D;" d="M251.131,206.273c0,2.652-1.781,4.802-3.979,4.802
				c-2.197,0-3.979-2.15-3.979-4.802s1.781-4.802,3.979-4.802C249.35,201.471,251.131,203.621,251.131,206.273z"/>
		</g>
		<path id="XMLID_7819_" style="fill:#FCE79D;" d="M246.198,202.815c0.437,0.042,0.735,0.44,0.67,0.826
			c-0.065,0.386-0.355,0.706-0.57,1.047c-0.309,0.487-0.474,1.045-0.476,1.604c-0.002,0.445,0.096,0.902-0.054,1.327
			c-0.15,0.424-0.686,0.791-1.139,0.6c-0.307-0.13-0.44-0.451-0.516-0.745c-0.308-1.207-0.126-2.508,0.504-3.612
			c0.094-0.164,0.198-0.326,0.336-0.463c0.267-0.268,0.565-0.565,0.968-0.584C245.92,202.814,246.017,202.798,246.198,202.815z"/>
		<path id="XMLID_8780_" style="fill:#B683BA;" d="M274.039,239.011c24.653,10.928,47.005,33.099,54.986,58.857
			c4.499,14.521,9.262,26.824,9.647,42.021c0.185,7.295,0.078,14.664,0.395,21.967c-22.982-4.422-44.631-14.704-61.438-30.991
			c-5.218-5.057-10.005-10.619-13.673-16.892c-2.915-4.985-5.093-10.36-7.259-15.714c-7.708-19.045-15.536-39.901-9.784-59.625
			L274.039,239.011z"/>
		<path id="XMLID_7830_" style="fill:#B683BA;" d="M220.513,237.904c-24.653,10.928-47.005,33.099-54.986,58.857
			c-4.499,14.521-9.262,26.824-9.647,42.021c-0.185,7.295-0.494,14.729-0.812,22.032c22.982-4.422,45.048-14.769,61.854-31.056
			c5.218-5.057,10.005-10.619,13.673-16.892c2.915-4.985,5.093-10.361,7.259-15.714c7.708-19.045,15.536-39.901,9.784-59.625
			L220.513,237.904z"/>
		<g id="XMLID_8959_">
			<path id="XMLID_79_" style="fill:#8D4C8F;" d="M220.671,237.959c0,0,0.839-0.128,2.301-0.279c1.463-0.15,3.55-0.343,6.048-0.47
				c5-0.316,11.645-0.393,18.277-0.242c3.316,0.086,6.63,0.213,9.736,0.391c3.106,0.176,6.004,0.383,8.492,0.624
				c2.486,0.198,4.565,0.457,6.022,0.614c1.458,0.168,2.297,0.31,2.297,0.31s-0.822,0.201-2.271,0.471
				c-0.725,0.136-1.606,0.304-2.62,0.431c-1.013,0.141-2.158,0.318-3.408,0.428c-1.249,0.127-2.605,0.274-4.038,0.367
				c-1.433,0.091-2.946,0.187-4.509,0.237c-1.563,0.048-3.18,0.103-4.821,0.096c-1.641,0.013-3.308-0.011-4.973-0.045
				c-6.663-0.165-13.31-0.713-18.276-1.439c-2.484-0.334-4.549-0.709-5.993-0.996C221.493,238.171,220.671,237.959,220.671,237.959z
				"/>
		</g>
		<g id="XMLID_7641_">
			<g id="XMLID_4700_">
				<path id="XMLID_25_" style="fill:#8D4C8F;" d="M250.05,256.819c0,0,0.092,0.474,0.264,1.362
					c0.162,0.893,0.434,2.188,0.802,3.825c0.373,1.639,0.869,3.625,1.517,5.879c0.667,2.248,1.44,4.78,2.419,7.496
					c1.931,5.439,4.508,11.682,7.819,18.099c3.288,6.426,7.136,13.119,11.528,19.419c2.194,3.15,4.491,6.226,6.917,9.111
					c2.431,2.88,4.94,5.609,7.501,8.111c2.579,2.517,5.179,4.746,7.798,6.737c2.588,2.008,5.163,3.734,7.596,5.23
					c2.448,1.472,4.754,2.72,6.848,3.728c2.091,1.017,3.982,1.752,5.534,2.375c1.563,0.592,2.81,1.018,3.667,1.283
					c0.855,0.277,1.312,0.426,1.312,0.426l0.018,0.006c0.238,0.077,0.369,0.333,0.292,0.572c-0.072,0.223-0.303,0.351-0.527,0.304
					c0,0-0.476-0.102-1.369-0.293c-0.898-0.178-2.191-0.53-3.833-1.006c-1.637-0.49-3.605-1.164-5.796-2.105
					c-2.191-0.934-4.634-2.078-7.174-3.553c-2.55-1.457-5.195-3.234-7.872-5.266c-2.651-2.044-5.354-4.404-7.936-6.965
					c-2.605-2.57-5.138-5.383-7.526-8.382c-2.396-2.993-4.664-6.157-6.793-9.406c-2.132-3.248-4.115-6.582-5.967-9.921
					c-1.86-3.325-3.598-6.657-5.187-9.92c-1.583-3.268-3.027-6.468-4.328-9.531c-1.298-3.065-2.404-6.014-3.365-8.755
					c-1.925-5.486-3.136-10.181-3.931-13.478c-0.388-1.656-0.672-2.958-0.841-3.845c-0.18-0.887-0.275-1.36-0.275-1.36
					c-0.05-0.246,0.109-0.485,0.355-0.535s0.485,0.109,0.535,0.355L250.05,256.819z"/>
			</g>
			<g id="XMLID_7618_">
				<path id="XMLID_21_" style="fill:#8D4C8F;" d="M255.964,248.793c0,0,0.454,1.315,1.249,3.617
					c0.382,1.158,0.896,2.54,1.521,4.109c0.307,0.787,0.633,1.625,0.977,2.508c0.368,0.875,0.755,1.794,1.159,2.753
					c0.789,1.927,1.723,3.98,2.724,6.145c0.967,2.181,2.142,4.408,3.319,6.727c1.245,2.285,2.49,4.667,3.889,7.012
					c1.351,2.373,2.86,4.701,4.322,7.055c1.546,2.301,3.031,4.64,4.631,6.849c1.549,2.243,3.165,4.384,4.687,6.486
					c1.591,2.05,3.087,4.064,4.612,5.889c1.479,1.862,2.904,3.602,4.243,5.188c1.324,1.6,2.541,3.064,3.65,4.337
					c1.093,1.288,2.061,2.398,2.861,3.312c1.603,1.824,2.492,2.898,2.492,2.898l0.009,0.01c0.16,0.194,0.133,0.48-0.061,0.64
					c-0.175,0.145-0.426,0.136-0.59-0.009c0,0-1.048-0.923-2.834-2.596c-0.917-0.813-1.955-1.875-3.139-3.1
					c-0.595-0.61-1.229-1.259-1.897-1.943c-0.662-0.69-1.316-1.453-2.019-2.232c-1.425-1.542-2.862-3.303-4.386-5.164
					c-1.523-1.861-3.013-3.914-4.598-6.003c-1.523-2.134-3.125-4.321-4.6-6.647c-1.538-2.283-2.975-4.683-4.44-7.062
					c-1.383-2.429-2.811-4.83-4.08-7.27c-1.34-2.4-2.532-4.829-3.719-7.159c-0.561-1.181-1.113-2.343-1.652-3.48
					c-0.55-1.132-1.083-2.242-1.561-3.341c-0.99-2.183-1.911-4.253-2.689-6.196c-0.398-0.967-0.78-1.894-1.143-2.775
					c-0.339-0.892-0.661-1.738-0.964-2.533c-0.607-1.59-1.141-2.973-1.539-4.122c-0.822-2.292-1.291-3.601-1.291-3.601
					c-0.085-0.236,0.038-0.496,0.274-0.58c0.236-0.085,0.496,0.038,0.581,0.274C255.963,248.789,255.964,248.792,255.964,248.793z"
					/>
			</g>
			<g id="XMLID_7617_">
				<path id="XMLID_19_" style="fill:#8D4C8F;" d="M275.453,243.738c0,0,0.375,0.209,1.079,0.6c0.699,0.382,1.745,0.999,3.012,1.82
					c1.279,0.812,2.778,1.877,4.461,3.145c1.678,1.275,3.506,2.797,5.407,4.558c1.904,1.758,3.879,3.755,5.871,5.951
					c1.995,2.186,4.004,4.606,6.029,7.103c2.014,2.523,4.023,5.217,5.961,8.003c0.992,1.38,1.903,2.831,2.867,4.257
					c0.946,1.437,1.822,2.926,2.739,4.391c0.891,1.48,1.72,2.997,2.577,4.491c0.803,1.524,1.603,3.041,2.396,4.547
					c0.74,1.534,1.473,3.055,2.198,4.559c0.662,1.533,1.315,3.046,1.958,4.536c0.593,1.51,1.176,2.995,1.747,4.448
					c0.523,1.471,1.036,2.911,1.534,4.312c0.904,2.833,1.754,5.516,2.364,8.04c0.7,2.5,1.114,4.848,1.563,6.905
					c0.375,2.074,0.695,3.882,0.905,5.379c0.377,3.002,0.549,4.717,0.549,4.717c0.025,0.25-0.157,0.472-0.407,0.497
					c-0.23,0.023-0.437-0.13-0.488-0.349l-0.004-0.016c0,0-0.388-1.675-0.993-4.606c-0.342-1.456-0.758-3.225-1.235-5.253
					c-0.547-2.01-1.105-4.29-1.838-6.744c-0.691-2.464-1.525-5.109-2.45-7.89c-0.479-1.385-0.972-2.808-1.475-4.263
					c-0.55-1.438-1.112-2.907-1.683-4.401c-0.621-1.474-1.252-2.973-1.891-4.49c-0.679-1.5-1.367-3.019-2.06-4.549
					c-0.745-1.507-1.495-3.026-2.249-4.55c-0.809-1.496-1.59-3.016-2.422-4.509c-0.861-1.475-1.682-2.976-2.574-4.427
					c-0.91-1.439-1.768-2.905-2.708-4.302c-1.862-2.813-3.779-5.499-5.728-8.056c-0.995-1.26-1.961-2.537-2.93-3.718
					c-0.981-1.194-1.976-2.331-2.956-3.427c-1.962-2.191-3.905-4.18-5.777-5.931c-3.74-3.509-7.191-6.054-9.723-7.632
					c-1.264-0.801-2.261-1.377-2.978-1.761c-0.708-0.385-1.085-0.59-1.085-0.59c-0.22-0.12-0.302-0.395-0.182-0.616
					c0.12-0.22,0.395-0.302,0.616-0.182L275.453,243.738z"/>
			</g>
			<g id="XMLID_7632_">
				<path id="XMLID_17_" style="fill:#8D4C8F;" d="M240.404,256.798c0,0-0.096,0.473-0.275,1.36
					c-0.168,0.887-0.453,2.188-0.841,3.845c-0.795,3.297-2.006,7.992-3.931,13.478c-0.96,2.742-2.067,5.69-3.365,8.755
					c-1.301,3.063-2.745,6.263-4.328,9.531c-1.589,3.263-3.327,6.595-5.187,9.92c-1.852,3.339-3.835,6.673-5.967,9.921
					c-2.128,3.249-4.397,6.413-6.793,9.406c-2.388,3-4.921,5.812-7.526,8.382c-2.582,2.561-5.285,4.921-7.936,6.965
					c-2.678,2.032-5.323,3.809-7.872,5.266c-2.54,1.475-4.983,2.619-7.174,3.553c-2.19,0.941-4.159,1.615-5.796,2.105
					c-1.641,0.476-2.935,0.827-3.833,1.006c-0.893,0.191-1.369,0.293-1.369,0.293c-0.245,0.053-0.486-0.104-0.539-0.349
					c-0.049-0.229,0.084-0.455,0.302-0.526l0.02-0.006c0,0,0.456-0.148,1.312-0.426c0.857-0.265,2.104-0.69,3.667-1.283
					c1.552-0.624,3.443-1.358,5.534-2.375c2.094-1.008,4.4-2.256,6.848-3.728c2.433-1.497,5.008-3.222,7.596-5.23
					c2.619-1.991,5.218-4.22,7.798-6.737c2.561-2.502,5.07-5.231,7.501-8.111c2.427-2.885,4.723-5.961,6.917-9.111
					c4.391-6.3,8.24-12.993,11.528-19.419c3.311-6.418,5.888-12.66,7.819-18.099c0.979-2.716,1.751-5.248,2.419-7.496
					c0.648-2.254,1.144-4.239,1.517-5.879c0.369-1.637,0.64-2.931,0.802-3.825c0.172-0.888,0.264-1.362,0.264-1.362
					c0.048-0.246,0.286-0.407,0.532-0.359c0.246,0.048,0.407,0.286,0.359,0.532L240.404,256.798z"/>
			</g>
			<g id="XMLID_7624_">
				<path id="XMLID_15_" style="fill:#8D4C8F;" d="M234.456,248.897c0,0-0.47,1.31-1.291,3.601
					c-0.397,1.149-0.932,2.532-1.539,4.122c-0.302,0.795-0.624,1.641-0.964,2.533c-0.363,0.882-0.744,1.808-1.143,2.775
					c-0.778,1.942-1.7,4.012-2.689,6.196c-0.477,1.1-1.011,2.209-1.561,3.341c-0.54,1.137-1.091,2.299-1.652,3.481
					c-1.188,2.33-2.38,4.759-3.719,7.159c-1.269,2.44-2.697,4.841-4.08,7.27c-1.465,2.379-2.901,4.779-4.44,7.062
					c-1.475,2.326-3.076,4.513-4.6,6.647c-1.585,2.089-3.075,4.142-4.598,6.003c-1.523,1.86-2.961,3.621-4.386,5.164
					c-0.703,0.779-1.357,1.542-2.019,2.232c-0.668,0.684-1.301,1.333-1.897,1.943c-1.184,1.225-2.222,2.286-3.139,3.1
					c-1.786,1.672-2.834,2.596-2.834,2.596c-0.188,0.166-0.476,0.148-0.642-0.04c-0.15-0.17-0.15-0.421-0.009-0.59l0.009-0.01
					c0,0,0.889-1.074,2.492-2.898c0.8-0.913,1.768-2.024,2.861-3.312c1.109-1.273,2.327-2.738,3.65-4.337
					c1.339-1.587,2.764-3.326,4.243-5.188c1.525-1.825,3.022-3.839,4.613-5.889c1.521-2.102,3.137-4.243,4.687-6.486
					c1.6-2.209,3.085-4.548,4.631-6.849c1.462-2.354,2.971-4.682,4.322-7.055c1.4-2.345,2.645-4.727,3.889-7.012
					c1.177-2.319,2.352-4.546,3.319-6.727c1.002-2.165,1.935-4.218,2.724-6.145c0.404-0.96,0.791-1.879,1.159-2.753
					c0.344-0.883,0.67-1.721,0.977-2.508c0.626-1.569,1.14-2.951,1.521-4.109c0.795-2.301,1.249-3.617,1.249-3.617
					c0.082-0.237,0.34-0.363,0.577-0.281c0.237,0.082,0.363,0.34,0.281,0.577C234.458,248.893,234.457,248.896,234.456,248.897z"/>
			</g>
			<g id="XMLID_7620_">
				<path id="XMLID_13_" style="fill:#8D4C8F;" d="M214.549,244.336c0,0-0.378,0.205-1.085,0.59
					c-0.717,0.383-1.714,0.96-2.978,1.761c-2.532,1.577-5.983,4.122-9.723,7.632c-1.873,1.751-3.816,3.741-5.778,5.931
					c-0.979,1.097-1.975,2.234-2.955,3.427c-0.969,1.181-1.935,2.458-2.93,3.718c-1.949,2.556-3.866,5.243-5.728,8.056
					c-0.94,1.397-1.798,2.863-2.708,4.302c-0.892,1.45-1.713,2.952-2.574,4.427c-0.832,1.492-1.614,3.013-2.423,4.509
					c-0.754,1.525-1.504,3.044-2.249,4.551c-0.693,1.531-1.381,3.049-2.06,4.549c-0.639,1.517-1.27,3.016-1.891,4.49
					c-0.571,1.494-1.133,2.963-1.683,4.401c-0.503,1.454-0.996,2.877-1.475,4.263c-0.925,2.781-1.758,5.426-2.45,7.89
					c-0.734,2.453-1.291,4.733-1.838,6.743c-0.477,2.029-0.893,3.797-1.235,5.253c-0.604,2.931-0.993,4.606-0.993,4.606
					l-0.004,0.015c-0.057,0.244-0.301,0.397-0.545,0.34c-0.225-0.052-0.372-0.264-0.349-0.488c0,0,0.172-1.715,0.549-4.717
					c0.211-1.497,0.53-3.305,0.905-5.379c0.449-2.057,0.863-4.405,1.563-6.905c0.611-2.524,1.46-5.207,2.364-8.04
					c0.499-1.401,1.011-2.841,1.534-4.312c0.571-1.453,1.154-2.938,1.747-4.448c0.643-1.489,1.296-3.003,1.958-4.536
					c0.725-1.503,1.458-3.025,2.198-4.559c0.793-1.506,1.593-3.023,2.396-4.547c0.857-1.494,1.687-3.01,2.577-4.491
					c0.917-1.465,1.792-2.954,2.739-4.391c0.964-1.425,1.875-2.876,2.867-4.257c1.938-2.785,3.946-5.479,5.961-8.003
					c2.025-2.498,4.034-4.917,6.029-7.103c1.992-2.197,3.967-4.193,5.871-5.951c1.901-1.761,3.729-3.284,5.407-4.558
					c1.683-1.268,3.182-2.333,4.461-3.145c1.267-0.82,2.312-1.437,3.011-1.82c0.704-0.391,1.079-0.6,1.079-0.6
					c0.219-0.122,0.495-0.043,0.617,0.176s0.043,0.495-0.176,0.617L214.549,244.336z"/>
			</g>
		</g>
		<g id="XMLID_8784_">
			<g id="XMLID_7708_">
				<path id="XMLID_103_" style="fill:#C9A0CE;" d="M264.03,449.353c0,0-0.186-0.361-0.534-1.036
					c-0.365-0.66-0.83-1.695-1.412-3.015c-0.529-1.332-1.151-2.958-1.718-4.869c-0.597-1.903-1.094-4.098-1.541-6.505
					c-0.441-2.409-0.778-5.041-1.007-7.832c-0.226-2.791-0.378-5.737-0.487-8.783c-0.098-3.049-0.163-6.187-0.207-9.385
					c-0.064-3.198-0.094-6.444-0.112-9.693c-0.012-6.495,0.021-12.991,0.214-19.076c0.159-6.085,0.361-11.763,0.655-16.622
					c0.126-2.431,0.302-4.656,0.444-6.629c0.143-1.973,0.265-3.692,0.406-5.107c0.249-2.83,0.433-4.445,0.433-4.445
					c0.028-0.25,0.254-0.429,0.504-0.4c0.229,0.026,0.399,0.218,0.403,0.442c0,0,0.035,1.625,0.023,4.466
					c0.013,1.421-0.025,3.144-0.058,5.121c-0.036,1.977-0.057,4.207-0.138,6.638c-0.119,4.863-0.376,10.53-0.61,16.603
					c-0.112,3.036-0.228,6.174-0.346,9.362c-0.102,3.189-0.205,6.427-0.309,9.667c-0.19,6.477-0.275,12.963-0.217,19.035
					c0.037,6.067,0.453,11.722,1.292,16.483c0.425,2.378,0.9,4.544,1.475,6.418c0.251,0.949,0.582,1.805,0.843,2.611
					c0.311,0.788,0.597,1.512,0.855,2.165c0.577,1.271,1.033,2.267,1.411,2.936c0.355,0.672,0.544,1.031,0.544,1.031
					c0.117,0.222,0.032,0.496-0.189,0.613c-0.222,0.117-0.496,0.032-0.613-0.189L264.03,449.353z"/>
			</g>
			<g id="XMLID_7709_">
				<path id="XMLID_97_" style="fill:#C9A0CE;" d="M191.082,452.143c0,0,0.224-0.286,0.645-0.824
					c0.412-0.541,1.06-1.314,1.783-2.344c0.366-0.514,0.788-1.07,1.218-1.701c0.42-0.638,0.874-1.327,1.358-2.063
					c0.459-0.753,0.947-1.555,1.462-2.399c0.486-0.862,0.997-1.768,1.531-2.713c1.012-1.921,2.084-4.016,3.085-6.295
					c1.041-2.261,1.982-4.714,2.888-7.273c0.897-2.562,1.717-5.246,2.477-7.992c0.724-2.753,1.377-5.585,1.949-8.406
					c0.559-2.867,1.054-5.694,1.478-8.518c0.398-2.822,0.776-5.601,1.098-8.298c0.31-2.698,0.582-5.311,0.797-7.794
					c0.233-2.483,0.453-4.83,0.656-6.997c0.184-2.17,0.4-4.157,0.57-5.921c0.169-1.764,0.31-3.303,0.464-4.568
					c0.275-2.533,0.471-3.978,0.471-3.978c0.034-0.249,0.263-0.424,0.512-0.39c0.226,0.031,0.391,0.223,0.394,0.445
					c0,0,0.022,1.458-0.017,4.008c-0.001,1.276-0.058,2.822-0.118,4.596c-0.064,1.775-0.126,3.778-0.266,5.961
					c-0.247,4.367-0.716,9.456-1.418,14.89c-0.342,2.718-0.762,5.52-1.272,8.354c-0.517,2.827-1.101,5.719-1.763,8.541
					c-1.368,5.706-3.058,11.305-4.994,16.438c-0.993,2.555-1.99,5.01-3.043,7.291c-1.028,2.293-2.127,4.401-3.163,6.333
					c-0.546,0.951-1.069,1.862-1.567,2.729c-0.527,0.85-1.026,1.655-1.495,2.413c-0.985,1.484-1.842,2.78-2.6,3.819
					c-0.729,1.062-1.359,1.831-1.768,2.379c-0.414,0.542-0.635,0.831-0.635,0.831c-0.152,0.199-0.437,0.237-0.636,0.085
					c-0.199-0.152-0.237-0.437-0.085-0.636C191.08,452.146,191.082,452.144,191.082,452.143z"/>
			</g>
			<g id="XMLID_7784_">
				<path id="XMLID_91_" style="fill:#C9A0CE;" d="M214.837,441.078c0,0,0.189-0.331,0.542-0.952
					c0.365-0.622,0.845-1.53,1.438-2.712c0.58-1.189,1.267-2.646,1.922-4.373c0.667-1.721,1.354-3.69,2.002-5.87
					c1.282-4.363,2.458-9.562,3.321-15.194c0.445-2.827,0.871-5.741,1.239-8.708c0.351-2.973,0.671-5.997,0.919-9.027
					c0.254-3.029,0.482-6.059,0.623-9.046c0.089-1.493,0.139-2.975,0.197-4.439c0.077-1.463,0.114-2.91,0.156-4.333
					c0.081-2.845,0.11-5.598,0.094-8.207c0.025-2.609-0.016-5.076-0.038-7.353c-0.034-2.279-0.066-4.367-0.093-6.219
					c-0.041-1.852-0.115-3.465-0.118-4.799c-0.092-2.661-0.103-4.188-0.103-4.188v-0.007c-0.002-0.251,0.2-0.456,0.451-0.458
					c0.229-0.002,0.42,0.166,0.453,0.386c0,0,0.23,1.512,0.559,4.17c0.156,1.329,0.315,2.947,0.466,4.806
					c0.142,1.859,0.323,3.957,0.401,6.252c0.116,2.293,0.153,4.781,0.165,7.411c-0.009,2.631-0.067,5.405-0.177,8.272
					c-0.1,2.868-0.257,5.829-0.52,8.831c-0.235,3.003-0.538,6.048-0.904,9.085c-0.732,6.066-1.668,12.131-2.701,17.748
					c-1.054,5.637-2.177,10.877-3.533,15.274c-0.67,2.199-1.38,4.186-2.067,5.924c-0.687,1.739-1.365,3.224-1.938,4.439
					c-0.59,1.209-1.08,2.159-1.433,2.774c-0.347,0.625-0.532,0.958-0.532,0.958c-0.122,0.219-0.398,0.298-0.617,0.176
					c-0.219-0.122-0.298-0.398-0.176-0.617L214.837,441.078z"/>
			</g>
			<g id="XMLID_8783_">
				<path id="XMLID_85_" style="fill:#C9A0CE;" d="M290.649,452.824c0,0-0.236-0.15-0.679-0.432
					c-0.439-0.293-1.104-0.661-1.902-1.276c-0.825-0.571-1.754-1.338-2.813-2.224c-0.505-0.471-1.042-0.972-1.608-1.5
					c-0.533-0.561-1.093-1.152-1.678-1.768c-1.115-1.279-2.296-2.695-3.381-4.311c-1.117-1.593-2.154-3.367-3.159-5.236
					c-0.993-1.878-1.866-3.894-2.674-5.974c-0.791-2.093-1.47-4.24-2.051-6.464c-0.54-2.154-0.981-4.426-1.331-6.62
					c-0.337-2.206-0.566-4.39-0.706-6.506c-0.293-4.232-0.316-8.186-0.164-11.559c0.139-3.374,0.387-6.171,0.613-8.124
					c0.207-1.954,0.37-3.068,0.37-3.068c0.036-0.249,0.267-0.422,0.517-0.386c0.219,0.032,0.379,0.216,0.39,0.429
					c0,0,0.055,1.124,0.085,3.086c0.05,1.963,0.047,4.76,0.042,8.104c0.019,1.672-0.008,3.482,0.036,5.391
					c-0.001,1.911,0.065,3.922,0.168,5.999c0.12,2.076,0.306,4.213,0.528,6.382c0.256,2.175,0.596,4.317,1.036,6.534
					c0.452,2.136,1.021,4.295,1.693,6.363c0.716,2.057,1.507,4.056,2.415,5.925c0.913,1.864,1.881,3.632,2.961,5.201
					c1.037,1.599,2.172,3.001,3.243,4.271c0.57,0.604,1.117,1.182,1.636,1.733c0.552,0.517,1.077,1.008,1.569,1.468
					c0.52,0.429,1.006,0.831,1.456,1.203c0.456,0.363,0.902,0.652,1.289,0.937c0.762,0.574,1.454,0.947,1.892,1.23
					c0.447,0.275,0.686,0.422,0.686,0.422c0.214,0.131,0.28,0.411,0.149,0.624c-0.131,0.214-0.411,0.28-0.624,0.149
					C290.654,452.827,290.651,452.825,290.649,452.824z"/>
			</g>
		</g>
		<path id="XMLID_8790_" style="fill:#EFEEEE;" d="M312.976,234.321c8.351,3.038,18.087,7.593,26.74,9.613
			c2.854,0.666,5.771,1.122,8.52,2.139c4.756,1.76,11.664,6.244,14.088,5.473c1.182-0.292-2.26-2.167-3.39-3.25
			c-0.234-0.224-0.484-0.486-0.483-0.81c0.003-0.585,0.751-0.814,1.333-0.872c2.465-0.247,4.931-0.493,7.396-0.74
			c0.456-0.046,0.943-0.104,1.293-0.4c0.465-0.392,0.521-1.178,0.117-1.632c-0.404-0.455-0.884-0.361-1.635-0.077
			c1.289-0.274,1.289-0.274,1.951-0.397c0.662-0.122,1.327-0.912,0.865-1.402c-0.176-0.187-0.449-0.237-0.703-0.277
			c-0.891-0.141-1.782-0.281-2.673-0.422c1.263,0.361,4.454-0.499,3.208-1.609c-1.334-0.263-2.702-0.348-4.058-0.252
			c1.171-0.162,2.3-0.605,3.277-1.271c0.555-0.379,0.27-1.249-0.402-1.27c-5.523-0.176-11.036,3.409-16.576,2.471
			c-1.993-0.337-3.838-1.245-5.649-2.145c-8.487-4.219-18.07-9.396-26.48-13.767L312.976,234.321z"/>
		<g id="XMLID_8836_">
			<path id="XMLID_143_" style="fill:#DABDDC;" d="M223.678,111.949c0,0,0.516-0.663,1.594-1.662
				c1.071-1.003,2.705-2.345,4.874-3.67c1.089-0.65,2.288-1.344,3.631-1.925c1.331-0.607,2.771-1.19,4.316-1.628
				c1.535-0.473,3.164-0.833,4.837-1.098c1.679-0.221,3.401-0.373,5.125-0.342c1.724,0.003,3.445,0.173,5.117,0.438
				c1.675,0.258,3.283,0.701,4.818,1.16c1.529,0.482,2.968,1.057,4.288,1.682c1.333,0.591,2.532,1.28,3.615,1.931
				c1.075,0.669,2.05,1.289,2.854,1.927c0.823,0.607,1.528,1.146,2.069,1.644c1.102,0.966,1.7,1.543,1.7,1.543
				s-0.766-0.352-2.053-1.01c-0.631-0.348-1.447-0.684-2.344-1.119c-0.892-0.447-1.946-0.847-3.058-1.337
				c-0.551-0.256-1.161-0.442-1.772-0.672c-0.613-0.224-1.233-0.485-1.898-0.677c-1.307-0.447-2.713-0.807-4.156-1.184
				c-0.731-0.148-1.467-0.331-2.221-0.459c-0.759-0.098-1.517-0.257-2.29-0.343c-1.546-0.173-3.119-0.326-4.696-0.31
				c-1.577-0.048-3.152,0.084-4.701,0.216c-1.539,0.209-3.069,0.383-4.518,0.741c-1.452,0.333-2.855,0.694-4.164,1.124
				c-1.312,0.421-2.535,0.888-3.664,1.334c-2.239,0.935-4.074,1.849-5.335,2.547C224.381,111.494,223.678,111.949,223.678,111.949z"
				/>
		</g>
		<g id="XMLID_8986_">
			<g id="XMLID_8961_">
				<path id="XMLID_140_" style="fill:#1E252B;" d="M240.714,116.017c0,0,0.33,0.481,0.908,1.322
					c0.277,0.433,0.654,0.918,1.108,1.456c0.223,0.273,0.46,0.563,0.709,0.868c0.27,0.29,0.554,0.595,0.85,0.912
					c0.578,0.65,1.265,1.294,2.002,1.964c0.714,0.695,1.572,1.311,2.425,1.977c0.9,0.609,1.805,1.271,2.801,1.825
					c0.962,0.609,2.013,1.097,3.036,1.628c1.064,0.448,2.106,0.943,3.187,1.292c1.06,0.405,2.139,0.688,3.169,1.004
					c1.05,0.239,2.057,0.519,3.035,0.656c0.97,0.183,1.891,0.343,2.751,0.413c0.429,0.048,0.84,0.094,1.23,0.138
					c0.393,0.025,0.765,0.05,1.115,0.073c0.701,0.053,1.314,0.083,1.819,0.082c1.011,0.013,1.595,0.041,1.595,0.041l0.037,0.452
					c0,0-0.581,0.082-1.61,0.188c-0.514,0.078-1.141,0.091-1.861,0.092c-0.361,0.005-0.745,0.009-1.15,0.014
					c-0.405-0.005-0.828-0.057-1.27-0.089c-0.888-0.049-1.84-0.187-2.846-0.35c-1.007-0.154-2.041-0.456-3.118-0.716
					c-1.059-0.333-2.164-0.644-3.232-1.111c-1.094-0.401-2.144-0.948-3.212-1.448c-1.027-0.583-2.077-1.121-3.034-1.779
					c-0.992-0.603-1.888-1.312-2.776-1.964c-0.432-0.341-0.837-0.704-1.243-1.044c-0.411-0.335-0.809-0.667-1.167-1.024
					c-0.741-0.686-1.431-1.345-2.011-2.01c-0.297-0.325-0.582-0.637-0.853-0.933c-0.252-0.314-0.491-0.612-0.716-0.892
					c-0.454-0.558-0.844-1.046-1.125-1.47c-0.59-0.833-0.927-1.31-0.927-1.31L240.714,116.017z"/>
			</g>
			<g id="XMLID_8978_">
				<path id="XMLID_138_" style="fill:#1E252B;" d="M246.458,118.287c0,0,0.266,0.212,0.731,0.583
					c0.463,0.377,1.145,0.868,1.985,1.442c0.837,0.574,1.829,1.225,2.937,1.845c1.105,0.624,2.314,1.233,3.545,1.789
					c1.23,0.558,2.486,1.05,3.655,1.525c1.181,0.447,2.289,0.845,3.237,1.192c0.948,0.35,1.741,0.64,2.293,0.862
					c0.555,0.211,0.869,0.352,0.869,0.352l-0.112,0.44c0,0-0.343-0.036-0.937-0.135c-0.596-0.09-1.439-0.268-2.427-0.561
					c-0.996-0.271-2.12-0.704-3.31-1.196c-1.193-0.488-2.419-1.112-3.629-1.756c-2.4-1.333-4.703-2.807-6.376-3.992
					c-1.669-1.198-2.739-2.034-2.739-2.034L246.458,118.287z"/>
			</g>
			<g id="XMLID_8979_">
				<path id="XMLID_136_" style="fill:#1E252B;" d="M230.771,116.629c0,0-0.1,0.307-0.274,0.846
					c-0.186,0.538-0.427,1.311-0.776,2.222c-0.703,1.813-1.774,4.205-3.301,6.361c-0.768,1.06-1.653,2.079-2.604,2.88
					c-0.942,0.817-1.922,1.472-2.828,1.904c-0.903,0.438-1.709,0.679-2.283,0.786c-0.57,0.121-0.902,0.142-0.902,0.142l-0.109-0.441
					c0,0,0.297-0.126,0.802-0.35c0.503-0.23,1.211-0.565,2.021-1.03c0.803-0.477,1.725-1.06,2.635-1.801
					c0.902-0.756,1.812-1.608,2.628-2.587c1.658-1.924,2.825-4.245,3.525-6.029c0.354-0.893,0.626-1.65,0.782-2.188
					c0.16-0.54,0.252-0.849,0.252-0.849L230.771,116.629z"/>
			</g>
			<g id="XMLID_8980_">
				<path id="XMLID_134_" style="fill:#1E252B;" d="M226.788,119.636c0,0-0.223,0.638-0.687,1.579
					c-0.443,0.94-1.182,2.118-2.085,3.202c-0.467,0.524-0.969,1.029-1.498,1.432c-0.535,0.394-1.061,0.732-1.556,0.933
					c-0.485,0.219-0.919,0.333-1.229,0.378c-0.308,0.053-0.487,0.061-0.487,0.061l-0.147-0.429c0,0,0.139-0.111,0.387-0.267
					c0.244-0.167,0.597-0.38,1.012-0.638c0.833-0.506,1.94-1.179,2.943-2.04c0.499-0.43,0.963-0.908,1.351-1.396
					c0.389-0.488,0.697-0.986,0.932-1.427c0.233-0.447,0.392-0.815,0.487-1.102c0.096-0.281,0.151-0.442,0.151-0.442
					L226.788,119.636z"/>
			</g>
			<g id="XMLID_8981_">
				<path id="XMLID_132_" style="fill:#1E252B;" d="M226.291,104.477c0,0-0.326,0.147-0.858,0.433
					c-0.535,0.274-1.273,0.746-2.095,1.382c-0.813,0.648-1.729,1.457-2.557,2.463c-0.839,0.991-1.62,2.154-2.259,3.364
					c-0.33,0.632-0.622,1.234-0.893,1.862c-0.258,0.628-0.508,1.247-0.729,1.854c-0.432,1.219-0.748,2.385-1.03,3.383
					c-0.265,1.009-0.486,1.849-0.64,2.438c-0.152,0.593-0.25,0.933-0.25,0.933l-0.45-0.058c0,0-0.011-0.357,0.027-0.98
					c0.026-0.624,0.12-1.513,0.332-2.564c0.205-1.052,0.561-2.258,1.046-3.511c0.466-1.253,1.137-2.554,1.881-3.753
					c1.536-2.443,3.546-4.497,5.25-5.786c0.852-0.647,1.619-1.096,2.164-1.408c0.545-0.309,0.857-0.458,0.857-0.458L226.291,104.477
					z"/>
			</g>
			<g id="XMLID_8982_">
				<path id="XMLID_130_" style="fill:#1E252B;" d="M264.977,101.559c0,0,0.389,0.158,1.068,0.434
					c0.342,0.127,0.749,0.322,1.216,0.549c0.473,0.215,0.996,0.476,1.538,0.805c0.561,0.3,1.134,0.681,1.733,1.094
					c0.609,0.399,1.196,0.897,1.832,1.375c0.596,0.525,1.234,1.048,1.808,1.657c0.615,0.57,1.156,1.228,1.727,1.863
					c0.516,0.677,1.058,1.341,1.502,2.057c0.49,0.687,0.865,1.429,1.249,2.134c0.333,0.729,0.692,1.422,0.937,2.118
					c0.25,0.693,0.485,1.35,0.62,1.981c0.18,0.618,0.269,1.202,0.338,1.72c0.083,0.515,0.147,0.963,0.143,1.341
					c0.034,0.748,0.032,1.172,0.032,1.172l-0.452,0.039c0,0-0.107-0.408-0.255-1.116c-0.071-0.355-0.173-0.781-0.307-1.266
					c-0.117-0.488-0.276-1.03-0.47-1.614c-0.172-0.591-0.395-1.218-0.651-1.875c-0.221-0.669-0.554-1.337-0.859-2.042
					c-0.362-0.679-0.703-1.398-1.13-2.088c-0.388-0.713-0.882-1.373-1.337-2.062c-0.512-0.646-0.996-1.32-1.558-1.91
					c-0.531-0.62-1.13-1.155-1.69-1.696c-0.595-0.498-1.155-1.007-1.751-1.399c-0.582-0.412-1.139-0.794-1.685-1.094
					c-0.53-0.331-1.035-0.591-1.491-0.805c-0.447-0.231-0.847-0.414-1.197-0.534c-0.685-0.263-1.077-0.413-1.077-0.413
					L264.977,101.559z"/>
			</g>
		</g>
		<g id="XMLID_121_">
			<g id="XMLID_5_">
				<path id="XMLID_128_" style="fill:#1E252B;" d="M285.376,143.749c0,0,0.208,0.466,0.653,1.215
					c0.448,0.752,1.192,1.775,2.279,2.814c1.083,1.04,2.538,2.042,4.269,2.815c1.712,0.807,3.631,1.476,5.492,2.415
					c1.831,0.945,3.589,2.243,4.696,3.96c0.544,0.862,0.93,1.782,1.089,2.745c0.135,0.892,0.101,1.829-0.021,2.589
					c-0.107,0.783-0.282,1.469-0.42,2.072c-0.134,0.598-0.251,1.12-0.347,1.549c-0.171,0.855-0.22,1.351-0.22,1.351l-0.454-0.005
					c0,0-0.061-0.525-0.002-1.436c0.044-0.909,0.291-2.184,0.441-3.651c0.066-0.751,0.102-1.483-0.039-2.32
					c-0.115-0.766-0.434-1.587-0.898-2.341c-0.484-0.749-1.102-1.462-1.823-2.099c-0.723-0.646-1.527-1.199-2.399-1.707
					c-1.721-0.997-3.623-1.764-5.334-2.635c-1.714-0.866-3.241-1.88-4.341-2.979c-1.115-1.08-1.85-2.153-2.336-2.911
					c-0.476-0.774-0.691-1.236-0.691-1.236L285.376,143.749z"/>
			</g>
			<g id="XMLID_6_">
				<path id="XMLID_115_" style="fill:#1E252B;" d="M285.33,149.05c0,0,0.184,0.284,0.527,0.733c0.343,0.459,0.894,1.07,1.628,1.722
					c0.739,0.643,1.662,1.341,2.768,1.869c1.098,0.548,2.351,0.962,3.611,1.432c1.252,0.481,2.53,1.046,3.559,1.89
					c0.516,0.415,0.975,0.882,1.344,1.384c0.346,0.492,0.633,1.072,0.775,1.584c0.315,1.056,0.211,2.014-0.001,2.612
					c-0.11,0.301-0.217,0.525-0.308,0.669c-0.093,0.141-0.142,0.216-0.142,0.216l-0.401-0.213c0,0,0.117-0.298,0.186-0.826
					c0.052-0.528,0.022-1.294-0.293-2.142c-0.174-0.433-0.363-0.837-0.686-1.273c-0.3-0.427-0.681-0.837-1.129-1.214
					c-0.902-0.746-2.026-1.393-3.222-1.941c-1.189-0.566-2.438-1.077-3.547-1.698c-1.105-0.632-2.069-1.326-2.815-2.015
					c-0.752-0.682-1.292-1.334-1.669-1.788c-0.374-0.467-0.559-0.738-0.559-0.738L285.33,149.05z"/>
			</g>
			<g id="XMLID_7_">
				<path id="XMLID_113_" style="fill:#1E252B;" d="M309.182,176.899c0,0,0.086,0.047,0.248,0.135
					c0.161,0.094,0.402,0.199,0.696,0.413c0.306,0.191,0.639,0.46,1.021,0.768c0.365,0.328,0.756,0.721,1.137,1.19
					c1.511,1.871,2.743,5.05,2.324,8.36c-0.097,0.76-0.3,1.601-0.547,2.354c-0.26,0.76-0.593,1.481-0.971,2.146
					c-0.759,1.328-1.668,2.443-2.563,3.265c-0.897,0.822-1.735,1.393-2.348,1.738c-0.609,0.353-0.979,0.51-0.979,0.51l-0.237-0.387
					c0,0,0.306-0.246,0.824-0.681c0.254-0.221,0.563-0.49,0.917-0.798c0.344-0.318,0.712-0.694,1.114-1.1
					c0.384-0.423,0.81-0.872,1.205-1.391c0.42-0.499,0.802-1.072,1.176-1.674c0.357-0.613,0.681-1.27,0.972-1.956
					c0.274-0.705,0.48-1.386,0.641-2.177c0.128-0.717,0.192-1.495,0.17-2.24c-0.046-0.748-0.145-1.486-0.331-2.182
					c-0.347-1.4-1.025-2.596-1.718-3.508c-0.357-0.452-0.725-0.83-1.068-1.148c-0.357-0.303-0.679-0.552-0.962-0.718
					c-0.265-0.188-0.525-0.298-0.684-0.386c-0.164-0.085-0.251-0.13-0.251-0.13L309.182,176.899z"/>
			</g>
			<g id="XMLID_8_">
				<path id="XMLID_111_" style="fill:#1E252B;" d="M310.027,181.505c0,0,0.104,0.13,0.277,0.405
					c0.173,0.279,0.399,0.671,0.579,1.189c0.384,1.025,0.566,2.492,0.29,3.975c-0.061,0.332-0.169,0.717-0.28,1.057
					c-0.115,0.345-0.256,0.675-0.41,0.984c-0.313,0.615-0.671,1.151-1.03,1.562c-0.356,0.414-0.697,0.715-0.957,0.9
					c-0.253,0.193-0.415,0.283-0.415,0.283l-0.33-0.312c0,0,0.334-0.64,0.897-1.48c0.272-0.427,0.604-0.908,0.914-1.448
					c0.155-0.27,0.303-0.554,0.452-0.846c0.143-0.301,0.258-0.58,0.38-0.924c0.217-0.607,0.339-1.287,0.341-1.914
					c0.019-0.632-0.107-1.217-0.253-1.699c-0.164-0.476-0.367-0.855-0.535-1.083c-0.163-0.237-0.285-0.377-0.285-0.377
					L310.027,181.505z"/>
			</g>
			<g id="XMLID_9_">
				<path id="XMLID_109_" style="fill:#1E252B;" d="M210.86,144.99c0,0-0.072,0.095-0.206,0.274c-0.142,0.175-0.312,0.449-0.6,0.765
					c-0.306,0.302-0.646,0.712-1.112,1.073c-0.44,0.398-0.994,0.771-1.603,1.161c-0.618,0.378-1.309,0.746-2.053,1.102
					c-0.749,0.338-1.539,0.694-2.357,1.063c-0.817,0.363-1.664,0.723-2.5,1.13c-0.84,0.401-1.657,0.863-2.445,1.356
					c-0.759,0.53-1.512,1.07-2.114,1.733c-0.147,0.158-0.325,0.33-0.444,0.474l-0.424,0.545c-0.239,0.341-0.463,0.696-0.661,1.074
					c-0.764,1.507-1.066,3.099-1.082,4.451c-0.015,0.678,0.035,1.302,0.118,1.851c0.09,0.548,0.217,1.017,0.325,1.404
					c0.114,0.386,0.229,0.682,0.315,0.882c0.079,0.204,0.121,0.313,0.121,0.313l-0.394,0.225c0,0-0.067-0.103-0.193-0.296
					c-0.134-0.19-0.296-0.487-0.485-0.878c-0.192-0.389-0.373-0.887-0.527-1.474c-0.146-0.588-0.281-1.268-0.289-2.019
					c-0.073-1.499,0.289-3.278,1.18-4.942c0.224-0.41,0.487-0.82,0.787-1.225c0.145-0.185,0.299-0.353,0.449-0.532
					c0.187-0.206,0.356-0.348,0.536-0.526c0.698-0.693,1.527-1.241,2.359-1.751c1.702-0.961,3.504-1.634,5.16-2.296
					c1.666-0.64,3.179-1.32,4.386-2.047c0.596-0.372,1.136-0.728,1.562-1.105c0.462-0.343,0.763-0.727,1.046-1.013
					c0.268-0.303,0.443-0.593,0.579-0.766c0.131-0.181,0.201-0.277,0.201-0.277L210.86,144.99z"/>
			</g>
			<g id="XMLID_118_">
				<path id="XMLID_107_" style="fill:#1E252B;" d="M203.564,153.159c0,0-0.197,0.063-0.542,0.174
					c-0.339,0.108-0.817,0.303-1.367,0.573c-0.541,0.287-1.165,0.646-1.743,1.14c-0.585,0.484-1.129,1.086-1.544,1.759
					c-0.427,0.678-0.687,1.39-0.861,2.097c-0.17,0.7-0.204,1.367-0.196,1.934c0.016,0.568,0.097,1.041,0.164,1.379
					c0.072,0.335,0.125,0.536,0.125,0.536l-0.397,0.22c0,0-0.158-0.161-0.36-0.5c-0.112-0.166-0.208-0.385-0.315-0.642
					c-0.087-0.262-0.176-0.563-0.222-0.902c-0.098-0.676-0.043-1.484,0.191-2.293c0.224-0.803,0.671-1.624,1.214-2.302
					c1.125-1.368,2.616-2.267,3.758-2.805c0.572-0.279,1.064-0.464,1.411-0.6c0.344-0.125,0.541-0.197,0.541-0.197L203.564,153.159z
					"/>
			</g>
			<g id="XMLID_119_">
				<path id="XMLID_105_" style="fill:#1E252B;" d="M186.919,176.903c0,0-0.081,0.035-0.232,0.101
					c-0.147,0.069-0.385,0.152-0.635,0.301c-0.264,0.13-0.57,0.327-0.91,0.57c-0.331,0.256-0.689,0.563-1.048,0.932
					c-0.7,0.749-1.424,1.738-1.892,2.94c-0.243,0.595-0.422,1.236-0.559,1.892c-0.115,0.657-0.167,1.353-0.159,2.004
					c0.025,0.723,0.098,1.354,0.224,2.018c0.144,0.65,0.313,1.283,0.517,1.883c0.427,1.196,0.986,2.248,1.495,3.133
					c0.522,0.879,1.012,1.586,1.361,2.082c0.356,0.495,0.559,0.778,0.559,0.778l-0.325,0.317c0,0-0.29-0.213-0.748-0.646
					c-0.468-0.423-1.084-1.091-1.699-1.99c-0.62-0.895-1.199-2.044-1.622-3.346c-0.211-0.651-0.376-1.342-0.475-2.055
					c-0.089-0.704-0.131-1.477-0.099-2.162c0.142-2.977,1.58-5.63,3.099-7.161c0.383-0.382,0.764-0.699,1.116-0.962
					c0.364-0.246,0.681-0.461,0.966-0.612c0.278-0.17,0.498-0.251,0.647-0.326c0.15-0.069,0.229-0.106,0.229-0.106L186.919,176.903z
					"/>
			</g>
			<g id="XMLID_120_">
				<path id="XMLID_31_" style="fill:#1E252B;" d="M185.536,181.127c0,0-0.093,0.114-0.255,0.314
					c-0.149,0.192-0.343,0.496-0.537,0.88c-0.378,0.773-0.661,1.915-0.637,3.06c-0.008,0.567,0.043,1.148,0.101,1.65
					c0.06,0.509,0.175,0.953,0.288,1.312c0.12,0.357,0.258,0.629,0.374,0.826c0.121,0.191,0.211,0.304,0.211,0.304l-0.239,0.386
					c0,0-0.172-0.03-0.434-0.189c-0.269-0.147-0.601-0.465-0.836-0.923c-0.243-0.454-0.371-1.028-0.406-1.623
					c-0.036-0.602,0.033-1.208,0.133-1.818c0.228-1.213,0.627-2.373,1.065-3.176c0.207-0.408,0.424-0.72,0.572-0.951
					c0.152-0.211,0.239-0.331,0.239-0.331L185.536,181.127z"/>
			</g>
		</g>
	</g>
</g>
</svg>
