<svg xmlns="http://www.w3.org/2000/svg" xml:space="preserve" width="800" height="800" fill="#4223d6" viewBox="0 0 193.477 193.478"><path d="m158.672 117.908 28.395-3.925-22.059-11.668c3.41-11.171 4.434-22.948 1.07-34.424l10.764-11.91-14.328 3.08c-6.467-12.31-17.484-19.278-30.925-19.278-.213 0-.438.045-.662.045l.804-21.699-20.948 26.926c-3.877 1.969-7.494 4.469-10.763 7.354L66.695 0l6.59 54.932c-7.716.547-14.78 2.767-20.634 6.404l-24.917-5.355L41.902 71.65c-4.805 7.368-6.493 16.523-4.858 26.764.174 1.123.429 2.217.677 3.311l-31.31 14.356 38.857 2.968c4.066 6.142 9.265 11.532 15.028 16.249l-5.828 18.264 19.949-8.487c5.719 3.381 11.529 6.229 17.02 8.605l10.853 39.798 8.878-32.574c4.93 1.495 8.222 2.275 8.824 2.411l3.121.697 2.341-2.163c.603-.556 4.74-4.451 10.214-10.663l21.977 13.796-11.124-27.344c4.267-5.875 8.546-12.536 12.151-19.73m-39.141 32.793c-13.37-3.659-65.051-19.907-70.536-54.202-1.335-8.343.213-15.188 4.602-20.327 4.962-5.822 13.728-9.297 23.431-9.297 6.02 0 12.02 1.363 16.898 3.833l4.841 2.456 2.968-4.551c6.413-9.841 18.695-16.719 29.867-16.719 7.128 0 16.703 2.888 21.94 16.604 12.376 32.375-24.258 72.344-34.011 82.203"/><path d="m150.25 35.894 7.169-1.502 5.296 5.06.798-7.283 6.448-3.475-6.684-3-1.307-7.211-4.918 5.429-7.258-.978 3.635 6.348zM47.139 157.403l-4.921 5.427-7.264-.981 3.644 6.36-3.183 6.603 7.178-1.502 5.297 5.059.792-7.276 6.445-3.475-6.682-3.003zM135.602 172.382l-3.398-4.492-1.501 5.425-5.332 1.832 4.711 3.11.1 5.633 4.403-3.511 5.397 1.649-1.985-5.284 3.238-4.61zM183.692 125.38l-3.623 1.123-2.979-2.354-.048 3.795-3.162 2.105 3.594 1.218 1.023 3.664 2.275-3.044 3.789.16-2.198-3.104zM13.099 95.099l2.276-3.038 3.789.159-2.2-3.1 1.328-3.567-3.633 1.126-2.97-2.353-.05 3.795-3.16 2.104 3.597 1.214zM45.366 47.434l5.071-1.058 3.739 3.57.558-5.145 4.558-2.456-4.726-2.125-.922-5.092-3.473 3.839-5.133-.697 2.571 4.492zM101.291 12.002l2.919 3.789 1.23-4.625 4.516-1.597-4.02-2.603-.136-4.782-3.717 3.015-4.582-1.351 1.714 4.468-2.695 3.946zM117.995 79.181a9 9 0 0 0-2.82-2.562c-3.693-2.154-8.115-1.501-9.841 1.472-1.726 2.967-.118 7.117 3.594 9.274 3.718 2.154 8.121 1.507 9.847-1.46l8.654-14.896 17.531 10.199-5.935 10.196a9.04 9.04 0 0 0-2.813-2.545c-3.706-2.169-8.109-1.501-9.836 1.463-1.737 2.962-.13 7.123 3.594 9.28 3.7 2.146 8.109 1.495 9.836-1.472l13.24-22.789-24.53-14.254zm29.505-2.368-1.53 2.633-17.525-10.193 1.542-2.64zM85.107 80.978 69.139 94.903l10.273 11.769a6.8 6.8 0 0 0-2.488 1.389c-2.415 2.093-3.009 5.379-1.321 7.306 1.679 1.928 5.007 1.797 7.427-.318 2.403-2.117 3.009-5.379 1.321-7.312l-8.449-9.699L87.31 88.09l5.787 6.649a6.6 6.6 0 0 0-2.477 1.384c-2.415 2.104-3 5.379-1.312 7.306 1.67 1.927 4.995 1.797 7.415-.319 2.406-2.104 3.015-5.367 1.324-7.3zM74.902 96.901l-1.49-1.715 11.402-9.947 1.49 1.717zM108.513 113.333l.378 7.933a3.35 3.35 0 0 0-1.418-.23c-1.632.07-2.902 1.188-2.837 2.5.07 1.294 1.436 2.287 3.062 2.211 1.631-.089 2.902-1.206 2.837-2.507l-.319-6.525 7.696-.378.207 4.475a3.5 3.5 0 0 0-1.419-.23c-1.625.07-2.902 1.199-2.831 2.5.059 1.294 1.431 2.293 3.062 2.204 1.619-.082 2.896-1.188 2.825-2.488l-.484-9.982zm1.667 2.613-.053-1.153 7.678-.384.064 1.158z"/></svg>